<svg xmlns="http://www.w3.org/2000/svg" xmlns:xlink="http://www.w3.org/1999/xlink" data-name="Layer 1" preserveAspectRatio="xMidYMid meet" version="1.0" viewBox="0.0 0.0 222.8 222.8" zoomAndPan="magnify" style="fill: rgb(0, 0, 0);" width="98.9011127673679px" height="98.9011127673679px"><g><g id="__id10_skzn1zz1k"><path d="M222.83,111.42C222.83,49.88,172.95,0,111.42,0S0,49.88,0,111.42c0,52.25,35.97,96.1,84.5,108.14v-74.09h-22.98v-34.05h22.98v-14.67c0-37.92,17.16-55.5,54.39-55.5,7.06,0,19.24,1.38,24.22,2.77v30.86c-2.63-.28-7.2-.42-12.87-.42-18.27,0-25.33,6.92-25.33,24.91v12.04h36.39l-6.25,34.05h-30.14v76.55c55.17-6.66,97.92-53.64,97.92-110.6Z" style="fill: rgb(8, 102, 255);"/></g><g id="__id11_skzn1zz1k"><path d="M155.06,145.46l6.25-34.05h-36.39v-12.04c0-17.99,7.06-24.91,25.33-24.91,5.67,0,10.24.14,12.87.42v-30.86c-4.98-1.38-17.16-2.77-24.22-2.77-37.23,0-54.39,17.58-54.39,55.5v14.67h-22.98v34.05h22.98v74.09c8.62,2.14,17.63,3.28,26.92,3.28,4.57,0,9.07-.28,13.5-.82v-76.55h30.14Z" style="fill: rgb(255, 255, 255);"/></g></g></svg>


