<svg xmlns="http://www.w3.org/2000/svg" xmlns:xlink="http://www.w3.org/1999/xlink" data-name="Layer 1" preserveAspectRatio="xMidYMid meet" version="1.0" viewBox="0.0 0.0 212.2 212.2" zoomAndPan="magnify" style="fill: rgb(0, 0, 0);" width="98.90111276736788px" height="98.90111276736788px"><g id="__id8_skzn1zz1k"><circle cx="106.08" cy="106.13" r="106.08" style="fill: rgb(255, 255, 255);"/></g><g id="__id9_skzn1zz1k"><path d="M66.7,204.6c-1.33-12.07-.4-23.6,2.25-34.74l10.61-45.75c-1.72-5.57-3.05-11.93-3.05-18.3,0-14.85,7.16-25.46,18.43-25.46,7.82,0,13.53,5.44,13.53,15.91,0,3.32-.66,7.03-1.99,11.27l-4.64,15.25c-.93,2.92-1.33,5.7-1.33,8.09,0,10.61,8.09,16.58,18.43,16.58,18.43,0,31.56-19.09,31.56-43.89,0-27.58-18.03-45.22-44.69-45.22-29.7,0-48.53,19.36-48.53,46.28,0,10.87,3.32,20.95,9.81,27.85-2.12,3.58-4.38,4.24-7.82,4.24-10.61,0-20.69-14.98-20.69-35.4,0-35.27,28.24-63.38,67.89-63.38,41.64,0,67.76,29.04,67.76,64.84s-25.46,63.12-52.91,63.12c-10.87,0-20.42-4.64-27.05-13l-5.44,22.01c-2.92,11.4-7.29,22.14-14.32,32.49,9.95,3.05,19.76,4.77,31.56,4.77,58.61,0,106.08-47.47,106.08-106.08S164.69,0,106.08,0,0,47.47,0,106.08c0,44.42,27.32,82.74,66.7,98.52" style="fill: rgb(230, 0, 35);"/></g></svg>


